<svg width="474" height="762" viewBox="0 0 474 762" fill="none" xmlns="http://www.w3.org/2000/svg">
<path d="M300.953 758.201C300.953 758.201 454.084 725.771 460.39 639.127C466.697 552.484 228.792 621.941 324.033 441.127C419.274 260.314 505.35 255.838 460.39 143.127C415.431 30.4166 294.704 -28.7519 154.453 16.0018C14.2022 60.7554 1.00003 348.127 1.00003 348.127" stroke="#D0D5F6" stroke-width="2"/>
<path d="M258.964 758.201C258.964 758.201 379.088 729.72 384.036 653.627C388.983 577.533 202.357 638.533 277.069 479.736C351.781 320.94 419.305 317.009 384.036 218.022C348.767 119.036 254.062 67.0722 144.041 106.376C34.02 145.681 23.6635 398.06 23.6635 398.06" stroke="#D0D5F6" stroke-width="2"/>
<path d="M222.729 760.201C222.729 760.201 313.634 735.36 317.378 668.993C321.122 602.626 179.891 655.829 236.43 517.329C292.969 378.83 344.068 375.402 317.378 289.068C290.688 202.734 219.019 157.412 135.76 191.692C52.5008 225.973 44.6635 446.093 44.6635 446.093" stroke="#D0D5F6" stroke-width="2"/>
</svg>
