<svg width="474" height="762" viewBox="0 0 474 762" fill="none" xmlns="http://www.w3.org/2000/svg">
<path d="M172.71 3C172.71 3 19.5798 35.4304 13.273 122.074C6.96621 208.717 244.871 139.26 149.631 320.074C54.3899 500.887 -31.6866 505.363 13.273 618.074C58.2326 730.785 178.96 789.953 319.21 745.2C459.461 700.446 472.663 413.074 472.663 413.074" stroke="#D0D5F6" stroke-width="2"/>
<path d="M214.7 3C214.7 3 94.575 31.4814 89.6276 107.575C84.6802 183.668 271.307 122.669 196.594 281.465C121.882 440.262 54.3587 444.192 89.6276 543.179C124.897 642.165 219.602 694.129 329.623 654.825C439.643 615.521 450 363.141 450 363.141" stroke="#D0D5F6" stroke-width="2"/>
<path d="M250.935 1C250.935 1 160.03 25.841 156.286 92.2081C152.542 158.575 293.773 105.373 237.234 243.872C180.695 382.371 129.596 385.799 156.286 472.133C182.976 558.468 254.645 603.789 337.904 569.509C421.163 535.229 429 315.108 429 315.108" stroke="#D0D5F6" stroke-width="2"/>
</svg>
